IKResults
version=1
nRows=16
nColumns=40
inDegrees=yes

Units are S.I. units (second, meters, Newtons, ...)
Angles are in degrees.

endheader
time	pelvis_tilt	pelvis_list	pelvis_rotation	pelvis_tx	pelvis_ty	pelvis_tz	hip_flexion_r	hip_adduction_r	hip_rotation_r	knee_angle_r	knee_angle_r_beta	ankle_angle_r	subtalar_angle_r	mtp_angle_r	hip_flexion_l	hip_adduction_l	hip_rotation_l	knee_angle_l	knee_angle_l_beta	ankle_angle_l	subtalar_angle_l	mtp_angle_l	lumbar_extension	lumbar_bending	lumbar_rotation	arm_flex_r	arm_add_r	arm_rot_r	elbow_flex_r	pro_sup_r	wrist_flex_r	wrist_dev_r	arm_flex_l	arm_add_l	arm_rot_l	elbow_flex_l	pro_sup_l	wrist_flex_l	wrist_dev_l
      1.01000000	     14.95230749	     -0.21444639	     -2.32885176	     -0.29959181	      0.94763651	      1.45639111	    -24.59130830	      2.21102698	    -11.57536709	    -14.18944463	     -0.24765253	     12.04509761	      1.19021059	     -1.54804340	      2.80268338	      1.56885546	     16.84940340	    -21.95343818	     -0.38315978	      6.72229005	     10.78538011	      0.32281624	    -22.86711325	     -2.09371883	      5.31054449	      5.48851313	    -14.70264584	     -3.80684287	     40.41001899	     89.95437384	      0.00000000	      0.00000000	     -6.21659849	      7.66578291	     18.84516708	     14.84149660	     89.95437384	      0.00000000	      0.00000000
      1.02000000	     14.94786035	     -0.02731885	     -2.52902275	     -0.28962314	      0.94634248	      1.45585015	    -25.14091015	      1.78215058	    -11.70376193	    -14.42957962	     -0.25184367	     12.21623984	      1.69551714	     -1.68361952	      3.05020574	      1.40116543	     19.15704962	    -19.65752217	     -0.34308848	      5.17754598	      7.64008348	     -0.26065776	    -22.82627169	     -2.33320568	      5.49024204	      5.52413093	    -14.84475198	     -4.08514729	     41.25900291	     89.95437384	      0.00000000	      0.00000000	     -6.67730246	      7.62205617	     19.02310538	     14.75851340	     89.95437384	      0.00000000	      0.00000000
      1.03000000	     14.88848865	      0.14934532	     -2.70340765	     -0.27932293	      0.94478721	      1.45555232	    -25.56426204	      1.37304629	    -11.92057142	    -14.87636260	     -0.25964151	     12.48507321	      2.28843128	     -1.95983804	      3.47497116	      1.36203446	     21.91060847	    -17.92141718	     -0.31278774	      3.83569198	      3.41048536	     -1.45350763	    -22.67453373	     -2.59089883	      5.60463503	      5.51083696	    -14.87140323	     -4.37071408	     42.03353928	     89.95437384	      0.00000000	      0.00000000	     -7.14166022	      7.64802887	     19.23262565	     14.64385546	     89.95437384	      0.00000000	      0.00000000
      1.04000000	     14.86419723	      0.40533803	     -2.90142466	     -0.26905199	      0.94326823	      1.45494853	    -25.94459215	      0.84298260	    -12.07455186	    -15.44078073	     -0.26949246	     12.73646980	      2.68989585	     -2.35516464	      3.80822961	      1.09680379	     24.31976292	    -16.25318702	     -0.28367163	      2.58671771	     -0.55859361	     -2.68763247	    -22.58540381	     -2.91614316	      5.70963870	      5.53466850	    -14.93428643	     -4.60583172	     42.69174272	     89.95437384	      0.00000000	      0.00000000	     -7.55131370	      7.66000804	     19.36686547	     14.53352831	     89.95437384	      0.00000000	      0.00000000
      1.05000000	     14.85194097	      0.78159613	     -3.10845585	     -0.25885879	      0.94183940	      1.45415694	    -26.27765038	      0.18543528	    -12.06863921	    -16.09786743	     -0.28096079	     12.83347591	      2.77527445	     -2.57899501	      3.94561699	      0.42163436	     25.65449337	    -14.35290496	     -0.25050545	      1.71044908	     -3.30241141	     -3.36306412	    -22.52927597	     -3.36628819	      5.78032335	      5.54499262	    -14.94315227	     -4.95862014	     43.29429136	     89.95437384	      0.00000000	      0.00000000	     -7.89978762	      7.63870967	     19.65526789	     14.50626897	     89.95437384	      0.00000000	      0.00000000
      1.06000000	     14.87668072	      1.06841704	     -3.37112964	     -0.24858498	      0.94037552	      1.45345633	    -26.56850744	     -0.43742017	    -12.06177853	    -16.93150056	     -0.29551043	     13.00169202	      3.14366036	     -3.01286230	      4.01804602	     -0.14901500	     26.75569362	    -12.66044229	     -0.22096640	      1.21456210	     -6.16782543	     -4.42548271	    -22.50138661	     -3.73517129	      5.86693270	      5.58621924	    -14.94975969	     -5.18859703	     43.81853318	     89.95437384	      0.00000000	      0.00000000	     -8.21809584	      7.61013779	     19.88300553	     14.40954623	     89.95437384	      0.00000000	      0.00000000
      1.07000000	     14.88320074	      1.37826915	     -3.64839661	     -0.23802828	      0.93890221	      1.45277819	    -26.84571024	     -1.03194865	    -11.72990982	    -17.72708544	     -0.30939601	     13.02497095	      2.94024070	     -3.22729888	      3.95904643	     -0.84330486	     27.13708874	    -10.97199735	     -0.19149748	      1.33185749	     -7.87237561	     -4.95091100	    -22.43772318	     -4.15564124	      6.00285655	      5.55573465	    -14.96770142	     -5.38682771	     44.27639683	     89.95437384	      0.00000000	      0.00000000	     -8.46120621	      7.59758267	     20.18583270	     14.28793229	     89.95437384	      0.00000000	      0.00000000
      1.08000000	     14.95095441	      1.58770883	     -3.98759916	     -0.22739833	      0.93756327	      1.45231122	    -27.14102271	     -1.55981694	    -11.25751534	    -18.60902549	     -0.32478877	     12.86814536	      2.84360253	     -3.47831805	      3.83825425	     -1.38197962	     27.39437353	     -9.71474346	     -0.16955426	      1.72245115	     -9.10965671	     -5.47553178	    -22.43794027	     -4.51157468	      6.16415731	      5.53134881	    -14.93239037	     -5.57048498	     44.67705626	     89.95437384	      0.00000000	      0.00000000	     -8.70616332	      7.59005463	     20.45655317	     14.21567470	     89.95437384	      0.00000000	      0.00000000
      1.09000000	     14.78528705	      1.55950366	     -3.86776552	     -0.21661517	      0.93588495	      1.45174959	    -27.34725490	     -1.55836986	    -10.97897201	    -19.23300853	     -0.33567932	     12.59660974	      2.77313901	     -3.44657890	      4.38783874	     -1.40569408	     27.22347233	     -9.79590369	     -0.17097077	      1.84779407	     -8.95879151	     -5.42216053	    -22.18434387	     -4.51806765	      5.98790250	      5.46361600	    -14.85205253	     -5.58796201	     44.90149480	     89.95437384	      0.00000000	      0.00000000	     -9.06221757	      7.67593251	     20.41621215	     14.28290064	     89.95437384	      0.00000000	      0.00000000
      1.10000000	     14.90911965	      1.57406396	     -4.17131650	     -0.20584945	      0.93460491	      1.45118548	    -27.48944405	     -1.87216895	    -10.23890811	    -20.54000808	     -0.35849077	     12.25661643	      2.35106257	     -3.47243343	      4.16404505	     -1.64218730	     27.24276927	     -9.34685196	     -0.16313334	      2.87645425	     -9.44109796	     -5.59372767	    -22.27318808	     -4.65456973	      6.11903156	      5.47830472	    -14.83404026	     -5.71296860	     45.15799106	     89.95437384	      0.00000000	      0.00000000	     -9.11243939	      7.64769662	     20.60101529	     13.98959574	     89.95437384	      0.00000000	      0.00000000
      1.11000000	     14.93259419	      1.60081709	     -4.36473627	     -0.19449804	      0.93320933	      1.45072241	    -27.65370027	     -2.10881482	     -9.53470434	    -21.66409905	     -0.37810986	     11.75606973	      2.02736565	     -3.44746951	      4.20939840	     -1.72381878	     27.17884559	     -9.77104144	     -0.17053684	      2.91748938	     -9.05219648	     -5.57306771	    -22.17506372	     -4.79007178	      6.13386899	      5.27196178	    -14.76942876	     -5.72933554	     45.49324250	     89.95437384	      0.00000000	      0.00000000	     -9.31857299	      7.67968983	     20.65508518	     13.87309943	     89.95437384	      0.00000000	      0.00000000
      1.12000000	     15.05498016	      1.51035428	     -4.89945515	     -0.18260202	      0.93203740	      1.45075793	    -27.84447086	     -2.39777412	     -8.62194020	    -22.87594455	     -0.39926055	     11.06850186	      1.27572548	     -3.43415690	      4.03395153	     -1.58946385	     27.35697059	    -10.57292033	     -0.18453227	      3.12496034	     -8.34371077	     -5.65996353	    -22.07804079	     -4.93943246	      6.64457796	      4.86455781	    -14.80513624	     -5.75996231	     45.80806083	     89.95437384	      0.00000000	      0.00000000	     -9.33342474	      7.69565534	     20.92204278	     13.49175913	     89.95437384	      0.00000000	      0.00000000
      1.13000000	     15.02778893	      1.08143145	     -5.06573837	     -0.17072902	      0.93079034	      1.45061546	    -28.01066198	     -1.92778937	     -7.00243345	    -23.84686552	     -0.41620632	      9.75866150	     -0.99600379	     -4.08091818	      4.24494332	     -0.89640286	     27.30606658	    -12.22037624	     -0.21328580	      2.69737424	     -7.75117988	     -7.61442952	    -21.88463580	     -4.61875371	      6.80245159	      4.55275422	    -14.77605437	     -5.67959990	     45.94923248	     89.95437384	      0.00000000	      0.00000000	     -9.35487533	      7.64264248	     21.58075776	     13.17870624	     89.95437384	      0.00000000	      0.00000000
      1.14000000	     15.24075876	      1.01113400	     -5.18185407	     -0.15845934	      0.93006704	      1.44992324	    -28.14602122	     -2.14036706	     -6.76492168	    -25.39848098	     -0.44328712	      8.57085458	     -1.12141565	     -3.93110775	      4.15827678	     -0.76919630	     27.03677286	    -13.86096624	     -0.24191950	      1.21335269	     -5.09972550	     -6.98366652	    -21.88645640	     -4.62924651	      6.76395836	      4.16294844	    -14.68975365	     -5.71198461	     46.06957024	     89.95437384	      0.00000000	      0.00000000	     -9.42230586	      7.66632752	     21.63482457	     12.98757510	     89.95437384	      0.00000000	      0.00000000
      1.15000000	     15.49502169	      1.03927427	     -5.38499952	     -0.14624700	      0.92983382	      1.44936651	    -28.16067576	     -2.47448491	     -6.38506784	    -27.14349554	     -0.47374337	      7.22302216	     -1.36624287	     -3.75851607	      3.93864261	     -0.63394651	     26.92640031	    -15.37988724	     -0.26842967	      0.07175738	     -4.00098562	     -6.70871291	    -21.92027976	     -4.81716513	      6.74186562	      3.89838438	    -14.56656797	     -5.56463582	     45.83840967	     89.95437384	      0.00000000	      0.00000000	     -9.43052460	      7.75615363	     21.36154529	     12.79075494	     89.95437384	      0.00000000	      0.00000000
      1.16000000	     15.83489455	      1.22870965	     -5.57757854	     -0.13401743	      0.93018569	      1.44875562	    -28.06610610	     -2.96733988	     -6.11530738	    -29.10493921	     -0.50797702	      5.29432211	     -1.81911432	     -3.52297573	      3.55484834	     -0.70470383	     26.75153594	    -16.67560827	     -0.29104427	      0.17033828	     -3.27591465	     -6.56573022	    -22.04291136	     -5.16568938	      6.67028247	      3.56041909	    -14.37492084	     -5.51369470	     45.56694519	     89.95437384	      0.00000000	      0.00000000	     -9.34928121	      7.85236409	     21.05453311	     12.57922149	     89.95437384	      0.00000000	      0.00000000
